#tb 0: 1/1000
#media_type 0: audio
#codec_id 0: pcm_s16le
#sample_rate 0: 1000
#channel_layout_name 0: mono
0,          0,          0,      132,      264, 0xa7b31d47
0,        132,        132,       68,      136, 0xbea94291
0,        200,        200,      100,      200, 0xf5045fd8
0,        300,        300,      100,      200, 0xf5045fd8
0,        400,        400,      100,      200, 0xf5045fd8
0,        500,        500,       93,      186, 0x87605db8
0,        593,        593,      110,      220, 0xa3cb5d0c
0,        703,        703,      108,      216, 0x98a96f08
0,        811,        811,      108,      216, 0xabc167bc
0,        919,        919,      149,      298, 0xc273245f
0,       1068,       1068,      136,      272, 0xefcf6e0f
0,       1204,       1204,       98,      196, 0xebbc668f
0,       1302,       1302,       98,      196, 0x42d461ea
0,       1400,       1400,       98,      196, 0x802961b5
0,       1498,       1498,      110,      220, 0xf57a6a71
0,       1608,       1608,      108,      216, 0xacb36c97
0,       1716,       1716,      107,      214, 0x52586ebf
0,       1823,       1823,      106,      212, 0x696c6571
0,       1929,       1929,       18,       36, 0x2b7911c6
